# xmcd
#
# Track frame offsets:
#	150
#	15756
#	34555
#	54833
#	76086
#	87511
#	107810
#	121284
#	135122
#	153068
#	169778
#	184414
#
# Disc length: 2671 seconds
# Revision: 0
# Processed by: cddbd v1.5.2PL0 Copyright (c) Steve Scherf et al.
# Submitted via: dBpowerAMP V12.0
#
DISCID=7c0a6d0c
DTITLE=Corb Lund - Cabin Fever
DYEAR=2012
DGENRE=Country
TTITLE0=Gettin' Down On the Mountain
TTITLE1=Dig Gravedigger Dig
TTITLE2=Bible On the Dash
TTITLE3=September
TTITLE4=Mein Deutsches Motorrad
TTITLE5=Cows Around
TTITLE6=(You Ain't a Cowboy) If You Ain't Been Bucked Off
TTITLE7=Drink It Like You Mean It
TTITLE8=Priceless Antique Pistol Shoots Startled Owner
TTITLE9=The Gothest Girl I Can
TTITLE10=One Left in the Chamber
TTITLE11=Pour 'Em Kinda Strong
EXTD=
EXTT0=
EXTT1=
EXTT2=
EXTT3=
EXTT4=
EXTT5=
EXTT6=
EXTT7=
EXTT8=
EXTT9=
EXTT10=
EXTT11=
PLAYORDER=
